<svg width="48" height="48" viewBox="0 0 48 48" fill="none" xmlns="http://www.w3.org/2000/svg">
<path d="M42.3242 42.3248L39.1828 31.1989C39.7645 29.9482 40.1863 28.6592 40.4481 27.3321C40.7099 26.0049 40.8408 24.6469 40.8408 23.2581C40.8408 20.8147 40.3826 18.5314 39.4664 16.408C38.5501 14.2846 37.2921 12.4231 35.6923 10.8233C34.0925 9.22346 32.2309 7.96543 30.1076 7.04918C27.9842 6.13293 25.7008 5.6748 23.2575 5.6748C20.8142 5.6748 18.5308 6.13293 16.4074 7.04918C14.2841 7.96543 12.4225 9.22346 10.8227 10.8233C9.22287 12.4231 7.96484 14.2846 7.04859 16.408C6.13234 18.5314 5.67422 20.8147 5.67422 23.2581C5.67422 25.7014 6.13234 27.9848 7.04859 30.1081C7.96484 32.2315 9.22287 34.0931 10.8227 35.6929C12.4225 37.2927 14.2841 38.5507 16.4074 39.467C18.5308 40.3832 20.8142 40.8414 23.2575 40.8414C24.6464 40.8414 26.0043 40.7105 27.3315 40.4487C28.6586 40.1869 29.9476 39.7651 31.1983 39.1834L42.3242 42.3248ZM38.3538 38.3544L32.3327 36.6964C31.8673 36.551 31.431 36.5001 31.0238 36.5437C30.6166 36.5873 30.1948 36.6964 29.7585 36.8709C28.7114 37.2782 27.6448 37.6054 26.5589 37.8526C25.473 38.0999 24.3715 38.2235 23.2546 38.2235C19.097 38.2235 15.5639 36.7691 12.6552 33.8604C9.74644 30.9517 8.29207 27.4176 8.29207 23.2581C8.29207 19.0986 9.74644 15.5645 12.6552 12.6558C15.5639 9.74703 19.098 8.29266 23.2575 8.29266C27.417 8.29266 30.9511 9.744 33.8598 12.6467C36.7685 15.5494 38.2229 19.0919 38.2229 23.2743C38.2229 24.3979 38.1429 25.5123 37.9829 26.6177C37.823 27.723 37.4521 28.7701 36.8703 29.7591C36.6667 30.1575 36.5577 30.5788 36.5431 31.0232C36.5286 31.4676 36.5795 31.9043 36.6958 32.3333L38.3538 38.3544Z" fill="black"/>
</svg>
