<svg width="48" height="48" viewBox="0 0 48 48" fill="none" xmlns="http://www.w3.org/2000/svg">
<path d="M24 41.9498L21.95 40.0998C18.4244 36.8624 15.5097 34.0698 13.2058 31.7218C10.9019 29.3738 9.06667 27.2748 7.7 25.4248C6.33333 23.5748 5.375 21.8998 4.825 20.3998C4.275 18.8998 4 17.3831 4 15.8498C4 12.8446 5.00833 10.335 7.025 8.32095C9.04167 6.30685 11.5333 5.2998 14.5 5.2998C16.4 5.2998 18.1583 5.7498 19.775 6.6498C21.3917 7.5498 22.8 8.8498 24 10.5498C25.4 8.7498 26.8833 7.4248 28.45 6.5748C30.0167 5.7248 31.7 5.2998 33.5 5.2998C36.4667 5.2998 38.9583 6.30685 40.975 8.32095C42.9917 10.335 44 12.8446 44 15.8498C44 17.3831 43.725 18.8998 43.175 20.3998C42.625 21.8998 41.6667 23.5748 40.3 25.4248C38.9333 27.2748 37.0981 29.3738 34.7942 31.7218C32.4903 34.0698 29.5756 36.8624 26.05 40.0998L24 41.9498ZM24 37.9998C27.3745 34.9 30.1515 32.2417 32.3309 30.0249C34.5103 27.8082 36.2417 25.8665 37.525 24.1998C38.8083 22.5331 39.7083 21.0476 40.225 19.7431C40.7417 18.4385 41 17.1432 41 15.8571C41 13.6522 40.3 11.8415 38.9 10.4248C37.5 9.00814 35.7037 8.2998 33.5112 8.2998C31.7938 8.2998 30.2042 8.8248 28.7425 9.8748C27.2808 10.9248 26.1 12.3998 25.2 14.2998H22.75C21.8833 12.4331 20.7192 10.9665 19.2575 9.8998C17.7958 8.83314 16.2062 8.2998 14.4887 8.2998C12.2962 8.2998 10.5 9.00814 9.1 10.4248C7.7 11.8415 7 13.6551 7 15.8656C7 17.1551 7.25833 18.4581 7.775 19.7748C8.29167 21.0915 9.19167 22.5915 10.475 24.2748C11.7583 25.9581 13.5 27.8998 15.7 30.0998C17.9 32.2998 20.6667 34.9331 24 37.9998Z" fill="black"/>
</svg>
